<svg xmlns="http://www.w3.org/2000/svg" width="900" height="440" viewBox="0 0 900 440" role="img" aria-label="Docker Hub pulls (cumulative)"><defs><linearGradient id="grad0" gradientUnits="userSpaceOnUse" x1="0" y1="70.00" x2="0" y2="386.00"><stop offset="0" stop-color="#6366f1" stop-opacity="0.20"/><stop offset="1" stop-color="#6366f1" stop-opacity="0"/></linearGradient><linearGradient id="grad1" gradientUnits="userSpaceOnUse" x1="0" y1="70.00" x2="0" y2="386.00"><stop offset="0" stop-color="#f59e0b" stop-opacity="0.20"/><stop offset="1" stop-color="#f59e0b" stop-opacity="0"/></linearGradient><linearGradient id="grad2" gradientUnits="userSpaceOnUse" x1="0" y1="70.00" x2="0" y2="386.00"><stop offset="0" stop-color="#10b981" stop-opacity="0.20"/><stop offset="1" stop-color="#10b981" stop-opacity="0"/></linearGradient></defs><style>text{font-family:-apple-system,BlinkMacSystemFont,"Segoe UI",Helvetica,Arial,sans-serif}.t{font-size:16px;font-weight:600;fill:#111827}.y{font-size:11px;fill:#9aa4b2}.x{font-size:11px;fill:#9aa4b2}.l{font-size:12px;fill:#5b6470}.e{font-size:11px;font-weight:600}</style><rect width="900" height="440" fill="#ffffff"/><text class="t" x="78.00" y="36">Docker Hub pulls (cumulative)</text><text class="y" x="20" y="228.00" transform="rotate(-90 20 228.00)" text-anchor="middle">pull count</text><line x1="78.00" y1="353.69" x2="802.00" y2="353.69" stroke="#eef1f5" stroke-width="1"/><text class="y" x="66.00" y="357.69" text-anchor="end">2K</text><line x1="78.00" y1="250.77" x2="802.00" y2="250.77" stroke="#eef1f5" stroke-width="1"/><text class="y" x="66.00" y="254.77" text-anchor="end">5K</text><line x1="78.00" y1="172.92" x2="802.00" y2="172.92" stroke="#eef1f5" stroke-width="1"/><text class="y" x="66.00" y="176.92" text-anchor="end">10K</text><line x1="78.00" y1="95.06" x2="802.00" y2="95.06" stroke="#eef1f5" stroke-width="1"/><text class="y" x="66.00" y="99.06" text-anchor="end">20K</text><line x1="78.00" y1="386.00" x2="802.00" y2="386.00" stroke="#d6dbe2" stroke-width="1.5"/><text class="x" x="181.43" y="410.00" text-anchor="middle">09-30</text><text class="x" x="284.86" y="410.00" text-anchor="middle">10-01</text><text class="x" x="388.29" y="410.00" text-anchor="middle">10-02</text><text class="x" x="491.71" y="410.00" text-anchor="middle">10-03</text><text class="x" x="595.14" y="410.00" text-anchor="middle">10-04</text><text class="x" x="698.57" y="410.00" text-anchor="middle">10-05</text><text class="x" x="802.00" y="410.00" text-anchor="middle">10-06</text><path d="M 78.00 384.14 C 112.48 384.14 146.95 384.14 181.43 384.14 C 215.90 384.14 250.38 384.14 284.86 384.14 C 319.33 384.14 353.81 384.14 388.29 384.14 C 422.76 384.14 457.24 384.14 491.71 384.14 C 526.19 384.14 560.67 384.14 595.14 384.14 C 629.62 384.14 664.10 383.41 698.57 383.41 C 733.05 383.41 767.52 383.41 802.00 383.41 L 802.00 386.00 L 78.00 386.00 Z" fill="url(#grad0)" stroke="none"/><path d="M 78.00 316.18 C 112.48 316.18 146.95 316.18 181.43 316.18 C 215.90 316.18 250.38 316.18 284.86 316.18 C 319.33 316.18 353.81 316.18 388.29 316.18 C 422.76 316.18 457.24 316.18 491.71 316.18 C 526.19 316.18 560.67 316.18 595.14 316.18 C 629.62 316.18 664.10 316.17 698.57 315.62 C 733.05 315.06 767.52 313.77 802.00 312.85 L 802.00 386.00 L 78.00 386.00 Z" fill="url(#grad1)" stroke="none"/><path d="M 78.00 74.51 C 112.48 74.47 146.95 74.38 181.43 74.38 C 215.90 74.38 250.38 74.38 284.86 74.38 C 319.33 74.38 353.81 74.38 388.29 74.38 C 422.76 74.38 457.24 74.12 491.71 74.12 C 526.19 74.12 560.67 74.12 595.14 74.12 C 629.62 74.12 664.10 74.10 698.57 74.10 C 733.05 74.10 767.52 74.10 802.00 74.10 L 802.00 386.00 L 78.00 386.00 Z" fill="url(#grad2)" stroke="none"/><path d="M 78.00 384.14 C 112.48 384.14 146.95 384.14 181.43 384.14 C 215.90 384.14 250.38 384.14 284.86 384.14 C 319.33 384.14 353.81 384.14 388.29 384.14 C 422.76 384.14 457.24 384.14 491.71 384.14 C 526.19 384.14 560.67 384.14 595.14 384.14 C 629.62 384.14 664.10 383.41 698.57 383.41 C 733.05 383.41 767.52 383.41 802.00 383.41" fill="none" stroke="#6366f1" stroke-width="2.5" stroke-linecap="round" stroke-linejoin="round"/><circle cx="78.00" cy="384.14" r="3" fill="#ffffff" stroke="#6366f1" stroke-width="2"/><circle cx="181.43" cy="384.14" r="3" fill="#ffffff" stroke="#6366f1" stroke-width="2"/><circle cx="284.86" cy="384.14" r="3" fill="#ffffff" stroke="#6366f1" stroke-width="2"/><circle cx="388.29" cy="384.14" r="3" fill="#ffffff" stroke="#6366f1" stroke-width="2"/><circle cx="491.71" cy="384.14" r="3" fill="#ffffff" stroke="#6366f1" stroke-width="2"/><circle cx="595.14" cy="384.14" r="3" fill="#ffffff" stroke="#6366f1" stroke-width="2"/><circle cx="698.57" cy="383.41" r="3" fill="#ffffff" stroke="#6366f1" stroke-width="2"/><circle cx="802.00" cy="383.41" r="3" fill="#ffffff" stroke="#6366f1" stroke-width="2"/><text class="e" x="812.00" y="387.41" fill="#6366f1">1,535</text><path d="M 78.00 316.18 C 112.48 316.18 146.95 316.18 181.43 316.18 C 215.90 316.18 250.38 316.18 284.86 316.18 C 319.33 316.18 353.81 316.18 388.29 316.18 C 422.76 316.18 457.24 316.18 491.71 316.18 C 526.19 316.18 560.67 316.18 595.14 316.18 C 629.62 316.18 664.10 316.17 698.57 315.62 C 733.05 315.06 767.52 313.77 802.00 312.85" fill="none" stroke="#f59e0b" stroke-width="2.5" stroke-linecap="round" stroke-linejoin="round"/><circle cx="78.00" cy="316.18" r="3" fill="#ffffff" stroke="#f59e0b" stroke-width="2"/><circle cx="181.43" cy="316.18" r="3" fill="#ffffff" stroke="#f59e0b" stroke-width="2"/><circle cx="284.86" cy="316.18" r="3" fill="#ffffff" stroke="#f59e0b" stroke-width="2"/><circle cx="388.29" cy="316.18" r="3" fill="#ffffff" stroke="#f59e0b" stroke-width="2"/><circle cx="491.71" cy="316.18" r="3" fill="#ffffff" stroke="#f59e0b" stroke-width="2"/><circle cx="595.14" cy="316.18" r="3" fill="#ffffff" stroke="#f59e0b" stroke-width="2"/><circle cx="698.57" cy="315.62" r="3" fill="#ffffff" stroke="#f59e0b" stroke-width="2"/><circle cx="802.00" cy="312.85" r="3" fill="#ffffff" stroke="#f59e0b" stroke-width="2"/><text class="e" x="812.00" y="316.85" fill="#f59e0b">2,877</text><path d="M 78.00 74.51 C 112.48 74.47 146.95 74.38 181.43 74.38 C 215.90 74.38 250.38 74.38 284.86 74.38 C 319.33 74.38 353.81 74.38 388.29 74.38 C 422.76 74.38 457.24 74.12 491.71 74.12 C 526.19 74.12 560.67 74.12 595.14 74.12 C 629.62 74.12 664.10 74.10 698.57 74.10 C 733.05 74.10 767.52 74.10 802.00 74.10" fill="none" stroke="#10b981" stroke-width="2.5" stroke-linecap="round" stroke-linejoin="round"/><circle cx="78.00" cy="74.51" r="3" fill="#ffffff" stroke="#10b981" stroke-width="2"/><circle cx="181.43" cy="74.38" r="3" fill="#ffffff" stroke="#10b981" stroke-width="2"/><circle cx="284.86" cy="74.38" r="3" fill="#ffffff" stroke="#10b981" stroke-width="2"/><circle cx="388.29" cy="74.38" r="3" fill="#ffffff" stroke="#10b981" stroke-width="2"/><circle cx="491.71" cy="74.12" r="3" fill="#ffffff" stroke="#10b981" stroke-width="2"/><circle cx="595.14" cy="74.12" r="3" fill="#ffffff" stroke="#10b981" stroke-width="2"/><circle cx="698.57" cy="74.10" r="3" fill="#ffffff" stroke="#10b981" stroke-width="2"/><circle cx="802.00" cy="74.10" r="3" fill="#ffffff" stroke="#10b981" stroke-width="2"/><text class="e" x="812.00" y="78.10" fill="#10b981">24,103</text><line x1="543.40" y1="36.00" x2="559.40" y2="36.00" stroke="#6366f1" stroke-width="3" stroke-linecap="round"/><text class="l" x="566.40" y="40.00">fileserver</text><line x1="654.40" y1="36.00" x2="670.40" y2="36.00" stroke="#f59e0b" stroke-width="3" stroke-linecap="round"/><text class="l" x="677.40" y="40.00">gitweb</text><line x1="738.20" y1="36.00" x2="754.20" y2="36.00" stroke="#10b981" stroke-width="3" stroke-linecap="round"/><text class="l" x="761.20" y="40.00">wechat</text></svg>
