<svg xmlns="http://www.w3.org/2000/svg" width="900" height="440" viewBox="0 0 900 440" role="img" aria-label="Docker Hub new pulls per day"><defs><linearGradient id="grad0" gradientUnits="userSpaceOnUse" x1="0" y1="70.00" x2="0" y2="386.00"><stop offset="0" stop-color="#818cf8" stop-opacity="0.20"/><stop offset="1" stop-color="#818cf8" stop-opacity="0"/></linearGradient><linearGradient id="grad1" gradientUnits="userSpaceOnUse" x1="0" y1="70.00" x2="0" y2="386.00"><stop offset="0" stop-color="#fbbf24" stop-opacity="0.20"/><stop offset="1" stop-color="#fbbf24" stop-opacity="0"/></linearGradient><linearGradient id="grad2" gradientUnits="userSpaceOnUse" x1="0" y1="70.00" x2="0" y2="386.00"><stop offset="0" stop-color="#34d399" stop-opacity="0.20"/><stop offset="1" stop-color="#34d399" stop-opacity="0"/></linearGradient></defs><style>text{font-family:-apple-system,BlinkMacSystemFont,"Segoe UI",Helvetica,Arial,sans-serif}.t{font-size:16px;font-weight:600;fill:#e6edf3}.y{font-size:11px;fill:#768390}.x{font-size:11px;fill:#768390}.l{font-size:12px;fill:#adbac7}.e{font-size:11px;font-weight:600}</style><rect width="900" height="440" fill="#0d1117"/><text class="t" x="78.00" y="36">Docker Hub new pulls per day</text><text class="y" x="20" y="228.00" transform="rotate(-90 20 228.00)" text-anchor="middle">new pulls</text><line x1="78.00" y1="386.00" x2="802.00" y2="386.00" stroke="#1f242c" stroke-width="1"/><text class="y" x="66.00" y="390.00" text-anchor="end">0</text><line x1="78.00" y1="280.67" x2="802.00" y2="280.67" stroke="#1f242c" stroke-width="1"/><text class="y" x="66.00" y="284.67" text-anchor="end">10</text><line x1="78.00" y1="175.33" x2="802.00" y2="175.33" stroke="#1f242c" stroke-width="1"/><text class="y" x="66.00" y="179.33" text-anchor="end">20</text><line x1="78.00" y1="70.00" x2="802.00" y2="70.00" stroke="#1f242c" stroke-width="1"/><text class="y" x="66.00" y="74.00" text-anchor="end">30</text><line x1="78.00" y1="386.00" x2="802.00" y2="386.00" stroke="#30363d" stroke-width="1.5"/><text class="x" x="440.00" y="410.00" text-anchor="middle">09-30</text><circle cx="440.00" cy="386.00" r="3.5" fill="#0d1117" stroke="#818cf8" stroke-width="2"/><circle cx="440.00" cy="386.00" r="3.5" fill="#0d1117" stroke="#fbbf24" stroke-width="2"/><circle cx="440.00" cy="91.07" r="3.5" fill="#0d1117" stroke="#34d399" stroke-width="2"/><line x1="543.40" y1="36.00" x2="559.40" y2="36.00" stroke="#818cf8" stroke-width="3" stroke-linecap="round"/><text class="l" x="566.40" y="40.00">fileserver</text><line x1="654.40" y1="36.00" x2="670.40" y2="36.00" stroke="#fbbf24" stroke-width="3" stroke-linecap="round"/><text class="l" x="677.40" y="40.00">gitweb</text><line x1="738.20" y1="36.00" x2="754.20" y2="36.00" stroke="#34d399" stroke-width="3" stroke-linecap="round"/><text class="l" x="761.20" y="40.00">wechat</text></svg>
